<?xml version="1.0" encoding="utf-8" standalone="no"?>
<!DOCTYPE svg PUBLIC "-//W3C//DTD SVG 1.1//EN"
  "http://www.w3.org/Graphics/SVG/1.1/DTD/svg11.dtd">
<svg xmlns:xlink="http://www.w3.org/1999/xlink" width="212.461625pt" height="209.47175pt" viewBox="0 0 212.461625 209.47175" xmlns="http://www.w3.org/2000/svg" version="1.1">
 <metadata>
  <rdf:RDF xmlns:dc="http://purl.org/dc/elements/1.1/" xmlns:cc="http://creativecommons.org/ns#" xmlns:rdf="http://www.w3.org/1999/02/22-rdf-syntax-ns#">
   <cc:Work>
    <dc:type rdf:resource="http://purl.org/dc/dcmitype/StillImage"/>
    <dc:date>2025-10-03T14:59:02.344400</dc:date>
    <dc:format>image/svg+xml</dc:format>
    <dc:creator>
     <cc:Agent>
      <dc:title>Matplotlib v3.10.0, https://matplotlib.org/</dc:title>
     </cc:Agent>
    </dc:creator>
   </cc:Work>
  </rdf:RDF>
 </metadata>
 <defs>
  <style type="text/css">*{stroke-linejoin: round; stroke-linecap: butt}</style>
 </defs>
 <g id="figure_1">
  <g id="patch_1">
   <path d="M 0 209.47175 
L 212.461625 209.47175 
L 212.461625 0 
L 0 0 
z
" style="fill: #ffffff"/>
  </g>
  <g id="axes_1">
   <g id="patch_2">
    <path d="M 42.78575 172.164 
L 195.46475 172.164 
L 195.46475 7.2 
L 42.78575 7.2 
z
" style="fill: #ffffff"/>
   </g>
   <g id="matplotlib.axis_1">
    <g id="xtick_1">
     <g id="line2d_1">
      <defs>
       <path id="m16db058a30" d="M 0 0 
L 0 4.8 
" style="stroke: #000000"/>
      </defs>
      <g>
       <use xlink:href="#m16db058a30" x="50.056179" y="172.164" style="stroke: #000000"/>
      </g>
     </g>
     <g id="text_1">
      <!-- 0.00 -->
      <g transform="translate(40.259304 187.150625) scale(0.088 -0.088)">
       <defs>
        <path id="DejaVuSans-30" d="M 2034 4250 
Q 1547 4250 1301 3770 
Q 1056 3291 1056 2328 
Q 1056 1369 1301 889 
Q 1547 409 2034 409 
Q 2525 409 2770 889 
Q 3016 1369 3016 2328 
Q 3016 3291 2770 3770 
Q 2525 4250 2034 4250 
z
M 2034 4750 
Q 2819 4750 3233 4129 
Q 3647 3509 3647 2328 
Q 3647 1150 3233 529 
Q 2819 -91 2034 -91 
Q 1250 -91 836 529 
Q 422 1150 422 2328 
Q 422 3509 836 4129 
Q 1250 4750 2034 4750 
z
" transform="scale(0.015625)"/>
        <path id="DejaVuSans-2e" d="M 684 794 
L 1344 794 
L 1344 0 
L 684 0 
L 684 794 
z
" transform="scale(0.015625)"/>
       </defs>
       <use xlink:href="#DejaVuSans-30"/>
       <use xlink:href="#DejaVuSans-2e" transform="translate(63.623047 0)"/>
       <use xlink:href="#DejaVuSans-30" transform="translate(95.410156 0)"/>
       <use xlink:href="#DejaVuSans-30" transform="translate(159.033203 0)"/>
      </g>
     </g>
    </g>
    <g id="xtick_2">
     <g id="line2d_2">
      <g>
       <use xlink:href="#m16db058a30" x="86.408321" y="172.164" style="stroke: #000000"/>
      </g>
     </g>
     <g id="text_2">
      <!-- 0.25 -->
      <g transform="translate(76.611446 187.150625) scale(0.088 -0.088)">
       <defs>
        <path id="DejaVuSans-32" d="M 1228 531 
L 3431 531 
L 3431 0 
L 469 0 
L 469 531 
Q 828 903 1448 1529 
Q 2069 2156 2228 2338 
Q 2531 2678 2651 2914 
Q 2772 3150 2772 3378 
Q 2772 3750 2511 3984 
Q 2250 4219 1831 4219 
Q 1534 4219 1204 4116 
Q 875 4013 500 3803 
L 500 4441 
Q 881 4594 1212 4672 
Q 1544 4750 1819 4750 
Q 2544 4750 2975 4387 
Q 3406 4025 3406 3419 
Q 3406 3131 3298 2873 
Q 3191 2616 2906 2266 
Q 2828 2175 2409 1742 
Q 1991 1309 1228 531 
z
" transform="scale(0.015625)"/>
        <path id="DejaVuSans-35" d="M 691 4666 
L 3169 4666 
L 3169 4134 
L 1269 4134 
L 1269 2991 
Q 1406 3038 1543 3061 
Q 1681 3084 1819 3084 
Q 2600 3084 3056 2656 
Q 3513 2228 3513 1497 
Q 3513 744 3044 326 
Q 2575 -91 1722 -91 
Q 1428 -91 1123 -41 
Q 819 9 494 109 
L 494 744 
Q 775 591 1075 516 
Q 1375 441 1709 441 
Q 2250 441 2565 725 
Q 2881 1009 2881 1497 
Q 2881 1984 2565 2268 
Q 2250 2553 1709 2553 
Q 1456 2553 1204 2497 
Q 953 2441 691 2322 
L 691 4666 
z
" transform="scale(0.015625)"/>
       </defs>
       <use xlink:href="#DejaVuSans-30"/>
       <use xlink:href="#DejaVuSans-2e" transform="translate(63.623047 0)"/>
       <use xlink:href="#DejaVuSans-32" transform="translate(95.410156 0)"/>
       <use xlink:href="#DejaVuSans-35" transform="translate(159.033203 0)"/>
      </g>
     </g>
    </g>
    <g id="xtick_3">
     <g id="line2d_3">
      <g>
       <use xlink:href="#m16db058a30" x="122.760464" y="172.164" style="stroke: #000000"/>
      </g>
     </g>
     <g id="text_3">
      <!-- 0.50 -->
      <g transform="translate(112.963589 187.150625) scale(0.088 -0.088)">
       <use xlink:href="#DejaVuSans-30"/>
       <use xlink:href="#DejaVuSans-2e" transform="translate(63.623047 0)"/>
       <use xlink:href="#DejaVuSans-35" transform="translate(95.410156 0)"/>
       <use xlink:href="#DejaVuSans-30" transform="translate(159.033203 0)"/>
      </g>
     </g>
    </g>
    <g id="xtick_4">
     <g id="line2d_4">
      <g>
       <use xlink:href="#m16db058a30" x="159.112607" y="172.164" style="stroke: #000000"/>
      </g>
     </g>
     <g id="text_4">
      <!-- 0.75 -->
      <g transform="translate(149.315732 187.150625) scale(0.088 -0.088)">
       <defs>
        <path id="DejaVuSans-37" d="M 525 4666 
L 3525 4666 
L 3525 4397 
L 1831 0 
L 1172 0 
L 2766 4134 
L 525 4134 
L 525 4666 
z
" transform="scale(0.015625)"/>
       </defs>
       <use xlink:href="#DejaVuSans-30"/>
       <use xlink:href="#DejaVuSans-2e" transform="translate(63.623047 0)"/>
       <use xlink:href="#DejaVuSans-37" transform="translate(95.410156 0)"/>
       <use xlink:href="#DejaVuSans-35" transform="translate(159.033203 0)"/>
      </g>
     </g>
    </g>
    <g id="xtick_5">
     <g id="line2d_5">
      <g>
       <use xlink:href="#m16db058a30" x="195.46475" y="172.164" style="stroke: #000000"/>
      </g>
     </g>
     <g id="text_5">
      <!-- 1.00 -->
      <g transform="translate(185.667875 187.150625) scale(0.088 -0.088)">
       <defs>
        <path id="DejaVuSans-31" d="M 794 531 
L 1825 531 
L 1825 4091 
L 703 3866 
L 703 4441 
L 1819 4666 
L 2450 4666 
L 2450 531 
L 3481 531 
L 3481 0 
L 794 0 
L 794 531 
z
" transform="scale(0.015625)"/>
       </defs>
       <use xlink:href="#DejaVuSans-31"/>
       <use xlink:href="#DejaVuSans-2e" transform="translate(63.623047 0)"/>
       <use xlink:href="#DejaVuSans-30" transform="translate(95.410156 0)"/>
       <use xlink:href="#DejaVuSans-30" transform="translate(159.033203 0)"/>
      </g>
     </g>
    </g>
    <g id="text_6">
     <!-- FPR -->
     <g transform="translate(110.135 200.27525) scale(0.096 -0.096)">
      <defs>
       <path id="DejaVuSans-46" d="M 628 4666 
L 3309 4666 
L 3309 4134 
L 1259 4134 
L 1259 2759 
L 3109 2759 
L 3109 2228 
L 1259 2228 
L 1259 0 
L 628 0 
L 628 4666 
z
" transform="scale(0.015625)"/>
       <path id="DejaVuSans-50" d="M 1259 4147 
L 1259 2394 
L 2053 2394 
Q 2494 2394 2734 2622 
Q 2975 2850 2975 3272 
Q 2975 3691 2734 3919 
Q 2494 4147 2053 4147 
L 1259 4147 
z
M 628 4666 
L 2053 4666 
Q 2838 4666 3239 4311 
Q 3641 3956 3641 3272 
Q 3641 2581 3239 2228 
Q 2838 1875 2053 1875 
L 1259 1875 
L 1259 0 
L 628 0 
L 628 4666 
z
" transform="scale(0.015625)"/>
       <path id="DejaVuSans-52" d="M 2841 2188 
Q 3044 2119 3236 1894 
Q 3428 1669 3622 1275 
L 4263 0 
L 3584 0 
L 2988 1197 
Q 2756 1666 2539 1819 
Q 2322 1972 1947 1972 
L 1259 1972 
L 1259 0 
L 628 0 
L 628 4666 
L 2053 4666 
Q 2853 4666 3247 4331 
Q 3641 3997 3641 3322 
Q 3641 2881 3436 2590 
Q 3231 2300 2841 2188 
z
M 1259 4147 
L 1259 2491 
L 2053 2491 
Q 2509 2491 2742 2702 
Q 2975 2913 2975 3322 
Q 2975 3731 2742 3939 
Q 2509 4147 2053 4147 
L 1259 4147 
z
" transform="scale(0.015625)"/>
      </defs>
      <use xlink:href="#DejaVuSans-46"/>
      <use xlink:href="#DejaVuSans-50" transform="translate(57.519531 0)"/>
      <use xlink:href="#DejaVuSans-52" transform="translate(117.822266 0)"/>
     </g>
    </g>
   </g>
   <g id="matplotlib.axis_2">
    <g id="ytick_1">
     <g id="line2d_6">
      <defs>
       <path id="m9d47c0e54f" d="M 0 0 
L -4.8 0 
" style="stroke: #000000"/>
      </defs>
      <g>
       <use xlink:href="#m9d47c0e54f" x="42.78575" y="172.164" style="stroke: #000000"/>
      </g>
     </g>
     <g id="text_7">
      <!-- 0.0 -->
      <g transform="translate(20.491 175.507313) scale(0.088 -0.088)">
       <use xlink:href="#DejaVuSans-30"/>
       <use xlink:href="#DejaVuSans-2e" transform="translate(63.623047 0)"/>
       <use xlink:href="#DejaVuSans-30" transform="translate(95.410156 0)"/>
      </g>
     </g>
    </g>
    <g id="ytick_2">
     <g id="line2d_7">
      <g>
       <use xlink:href="#m9d47c0e54f" x="42.78575" y="140.742286" style="stroke: #000000"/>
      </g>
     </g>
     <g id="text_8">
      <!-- 0.2 -->
      <g transform="translate(20.491 144.085598) scale(0.088 -0.088)">
       <use xlink:href="#DejaVuSans-30"/>
       <use xlink:href="#DejaVuSans-2e" transform="translate(63.623047 0)"/>
       <use xlink:href="#DejaVuSans-32" transform="translate(95.410156 0)"/>
      </g>
     </g>
    </g>
    <g id="ytick_3">
     <g id="line2d_8">
      <g>
       <use xlink:href="#m9d47c0e54f" x="42.78575" y="109.320571" style="stroke: #000000"/>
      </g>
     </g>
     <g id="text_9">
      <!-- 0.4 -->
      <g transform="translate(20.491 112.663884) scale(0.088 -0.088)">
       <defs>
        <path id="DejaVuSans-34" d="M 2419 4116 
L 825 1625 
L 2419 1625 
L 2419 4116 
z
M 2253 4666 
L 3047 4666 
L 3047 1625 
L 3713 1625 
L 3713 1100 
L 3047 1100 
L 3047 0 
L 2419 0 
L 2419 1100 
L 313 1100 
L 313 1709 
L 2253 4666 
z
" transform="scale(0.015625)"/>
       </defs>
       <use xlink:href="#DejaVuSans-30"/>
       <use xlink:href="#DejaVuSans-2e" transform="translate(63.623047 0)"/>
       <use xlink:href="#DejaVuSans-34" transform="translate(95.410156 0)"/>
      </g>
     </g>
    </g>
    <g id="ytick_4">
     <g id="line2d_9">
      <g>
       <use xlink:href="#m9d47c0e54f" x="42.78575" y="77.898857" style="stroke: #000000"/>
      </g>
     </g>
     <g id="text_10">
      <!-- 0.6 -->
      <g transform="translate(20.491 81.24217) scale(0.088 -0.088)">
       <defs>
        <path id="DejaVuSans-36" d="M 2113 2584 
Q 1688 2584 1439 2293 
Q 1191 2003 1191 1497 
Q 1191 994 1439 701 
Q 1688 409 2113 409 
Q 2538 409 2786 701 
Q 3034 994 3034 1497 
Q 3034 2003 2786 2293 
Q 2538 2584 2113 2584 
z
M 3366 4563 
L 3366 3988 
Q 3128 4100 2886 4159 
Q 2644 4219 2406 4219 
Q 1781 4219 1451 3797 
Q 1122 3375 1075 2522 
Q 1259 2794 1537 2939 
Q 1816 3084 2150 3084 
Q 2853 3084 3261 2657 
Q 3669 2231 3669 1497 
Q 3669 778 3244 343 
Q 2819 -91 2113 -91 
Q 1303 -91 875 529 
Q 447 1150 447 2328 
Q 447 3434 972 4092 
Q 1497 4750 2381 4750 
Q 2619 4750 2861 4703 
Q 3103 4656 3366 4563 
z
" transform="scale(0.015625)"/>
       </defs>
       <use xlink:href="#DejaVuSans-30"/>
       <use xlink:href="#DejaVuSans-2e" transform="translate(63.623047 0)"/>
       <use xlink:href="#DejaVuSans-36" transform="translate(95.410156 0)"/>
      </g>
     </g>
    </g>
    <g id="ytick_5">
     <g id="line2d_10">
      <g>
       <use xlink:href="#m9d47c0e54f" x="42.78575" y="46.477143" style="stroke: #000000"/>
      </g>
     </g>
     <g id="text_11">
      <!-- 0.8 -->
      <g transform="translate(20.491 49.820455) scale(0.088 -0.088)">
       <defs>
        <path id="DejaVuSans-38" d="M 2034 2216 
Q 1584 2216 1326 1975 
Q 1069 1734 1069 1313 
Q 1069 891 1326 650 
Q 1584 409 2034 409 
Q 2484 409 2743 651 
Q 3003 894 3003 1313 
Q 3003 1734 2745 1975 
Q 2488 2216 2034 2216 
z
M 1403 2484 
Q 997 2584 770 2862 
Q 544 3141 544 3541 
Q 544 4100 942 4425 
Q 1341 4750 2034 4750 
Q 2731 4750 3128 4425 
Q 3525 4100 3525 3541 
Q 3525 3141 3298 2862 
Q 3072 2584 2669 2484 
Q 3125 2378 3379 2068 
Q 3634 1759 3634 1313 
Q 3634 634 3220 271 
Q 2806 -91 2034 -91 
Q 1263 -91 848 271 
Q 434 634 434 1313 
Q 434 1759 690 2068 
Q 947 2378 1403 2484 
z
M 1172 3481 
Q 1172 3119 1398 2916 
Q 1625 2713 2034 2713 
Q 2441 2713 2670 2916 
Q 2900 3119 2900 3481 
Q 2900 3844 2670 4047 
Q 2441 4250 2034 4250 
Q 1625 4250 1398 4047 
Q 1172 3844 1172 3481 
z
" transform="scale(0.015625)"/>
       </defs>
       <use xlink:href="#DejaVuSans-30"/>
       <use xlink:href="#DejaVuSans-2e" transform="translate(63.623047 0)"/>
       <use xlink:href="#DejaVuSans-38" transform="translate(95.410156 0)"/>
      </g>
     </g>
    </g>
    <g id="ytick_6">
     <g id="line2d_11">
      <g>
       <use xlink:href="#m9d47c0e54f" x="42.78575" y="15.055429" style="stroke: #000000"/>
      </g>
     </g>
     <g id="text_12">
      <!-- 1.0 -->
      <g transform="translate(20.491 18.398741) scale(0.088 -0.088)">
       <use xlink:href="#DejaVuSans-31"/>
       <use xlink:href="#DejaVuSans-2e" transform="translate(63.623047 0)"/>
       <use xlink:href="#DejaVuSans-30" transform="translate(95.410156 0)"/>
      </g>
     </g>
    </g>
    <g id="text_13">
     <!-- TPR -->
     <g transform="translate(14.4945 98.84325) rotate(-90) scale(0.096 -0.096)">
      <defs>
       <path id="DejaVuSans-54" d="M -19 4666 
L 3928 4666 
L 3928 4134 
L 2272 4134 
L 2272 0 
L 1638 0 
L 1638 4134 
L -19 4134 
L -19 4666 
z
" transform="scale(0.015625)"/>
      </defs>
      <use xlink:href="#DejaVuSans-54"/>
      <use xlink:href="#DejaVuSans-50" transform="translate(61.083984 0)"/>
      <use xlink:href="#DejaVuSans-52" transform="translate(121.386719 0)"/>
     </g>
    </g>
   </g>
   <g id="line2d_12">
    <path d="M 50.056179 172.164 
L 50.056179 170.337156 
L 50.056179 148.41503 
L 51.671829 148.41503 
L 51.671829 124.66606 
L 53.28748 124.66606 
L 53.28748 110.051309 
L 54.903131 110.051309 
L 54.903131 104.570777 
L 56.518782 104.570777 
L 56.518782 89.956027 
L 58.134433 89.956027 
L 58.134433 75.341276 
L 59.750083 75.341276 
L 59.750083 66.207056 
L 61.365734 66.207056 
L 61.365734 64.380213 
L 62.981385 64.380213 
L 62.981385 44.28493 
L 64.597036 44.28493 
L 64.597036 42.458086 
L 67.828337 42.458086 
L 67.828337 38.804399 
L 69.443988 38.804399 
L 69.443988 36.977555 
L 71.059639 36.977555 
L 71.059639 35.150711 
L 75.906591 35.150711 
L 75.906591 33.323867 
L 77.522242 33.323867 
L 77.522242 31.497023 
L 82.369194 31.497023 
L 82.369194 29.670179 
L 93.67875 29.670179 
L 93.67875 27.843336 
L 103.372655 27.843336 
L 103.372655 26.016492 
L 106.603956 26.016492 
L 106.603956 24.189648 
L 111.450909 24.189648 
L 111.450909 22.362804 
L 121.144813 22.362804 
L 121.144813 20.53596 
L 122.760464 20.53596 
L 122.760464 18.709116 
L 130.838718 18.709116 
L 130.838718 16.882272 
L 159.920433 16.882272 
L 159.920433 15.055429 
L 195.46475 15.055429 
" clip-path="url(#pcd7011da8a)" style="fill: none; stroke: #3274a1; stroke-width: 2; stroke-linecap: square"/>
   </g>
   <g id="line2d_13">
    <path d="M 50.056179 172.164 
L 50.056179 170.638674 
L 50.056179 71.492488 
L 51.636707 71.492488 
L 51.636707 51.663251 
L 53.217234 51.663251 
L 53.217234 44.036621 
L 54.797762 44.036621 
L 54.797762 33.35934 
L 59.539346 33.35934 
L 59.539346 31.834014 
L 62.700402 31.834014 
L 62.700402 30.308688 
L 65.861458 30.308688 
L 65.861458 28.783362 
L 67.441986 28.783362 
L 67.441986 27.258036 
L 70.603042 27.258036 
L 70.603042 25.73271 
L 72.18357 25.73271 
L 72.18357 24.207384 
L 73.764098 24.207384 
L 73.764098 22.682058 
L 78.505682 22.682058 
L 78.505682 21.156732 
L 91.149905 21.156732 
L 91.149905 18.10608 
L 92.730433 18.10608 
L 92.730433 16.580755 
L 94.310961 16.580755 
L 94.310961 15.055429 
L 195.46475 15.055429 
" clip-path="url(#pcd7011da8a)" style="fill: none; stroke: #4ab45a; stroke-width: 2; stroke-linecap: square"/>
   </g>
   <g id="line2d_14">
    <path d="M 50.056179 172.164 
L 50.056179 170.809616 
L 50.056179 111.216709 
L 51.415137 111.216709 
L 51.415137 65.167645 
L 52.774096 65.167645 
L 52.774096 59.750108 
L 55.492013 59.750108 
L 55.492013 44.851882 
L 56.850972 44.851882 
L 56.850972 43.497498 
L 58.20993 43.497498 
L 58.20993 42.143113 
L 59.568889 42.143113 
L 59.568889 40.788729 
L 62.286806 40.788729 
L 62.286806 34.016808 
L 66.363682 34.016808 
L 66.363682 29.953655 
L 73.158475 29.953655 
L 73.158475 23.181734 
L 74.517434 23.181734 
L 74.517434 21.82735 
L 94.901813 21.82735 
L 94.901813 19.118581 
L 100.337647 19.118581 
L 100.337647 17.764197 
L 107.13244 17.764197 
L 107.13244 16.409813 
L 109.850357 16.409813 
L 109.850357 15.055429 
L 195.46475 15.055429 
" clip-path="url(#pcd7011da8a)" style="fill: none; stroke: #45a884; stroke-width: 2; stroke-linecap: square"/>
   </g>
   <g id="line2d_15">
    <path d="M 50.056179 172.164 
L 50.056179 170.510226 
L 50.056179 163.895128 
L 51.366166 163.895128 
L 51.366166 125.858316 
L 53.98614 125.858316 
L 53.98614 119.243218 
L 55.296127 119.243218 
L 55.296127 117.589444 
L 56.606114 117.589444 
L 56.606114 96.090376 
L 60.536076 96.090376 
L 60.536076 92.782827 
L 61.846063 92.782827 
L 61.846063 79.552632 
L 64.466037 79.552632 
L 64.466037 77.898857 
L 68.395998 77.898857 
L 68.395998 74.591308 
L 72.32596 74.591308 
L 72.32596 71.283759 
L 73.635947 71.283759 
L 73.635947 67.976211 
L 77.565908 67.976211 
L 77.565908 61.361113 
L 80.185883 61.361113 
L 80.185883 49.784692 
L 84.115844 49.784692 
L 84.115844 48.130917 
L 89.355792 48.130917 
L 89.355792 44.823368 
L 90.66578 44.823368 
L 90.66578 43.169594 
L 93.285754 43.169594 
L 93.285754 41.51582 
L 94.595741 41.51582 
L 94.595741 39.862045 
L 103.765651 39.862045 
L 103.765651 38.208271 
L 105.075638 38.208271 
L 105.075638 33.246947 
L 118.175509 33.246947 
L 118.175509 31.593173 
L 126.035432 31.593173 
L 126.035432 29.939398 
L 127.345419 29.939398 
L 127.345419 28.285624 
L 129.965394 28.285624 
L 129.965394 24.978075 
L 132.585368 24.978075 
L 132.585368 21.670526 
L 152.235175 21.670526 
L 152.235175 16.709203 
L 169.265007 16.709203 
L 169.265007 15.055429 
L 195.46475 15.055429 
" clip-path="url(#pcd7011da8a)" style="fill: none; stroke: #6b50ce; stroke-width: 2; stroke-linecap: square"/>
   </g>
   <g id="line2d_16">
    <path d="M 50.056179 172.164 
L 50.056179 166.272429 
L 50.4197 166.272429 
L 50.4197 136.814571 
L 51.146743 136.814571 
L 51.146743 130.923 
L 51.510264 130.923 
L 51.510264 127.780829 
L 51.873786 127.780829 
L 51.873786 126.209743 
L 52.237307 126.209743 
L 52.237307 122.6748 
L 52.600829 122.6748 
L 52.600829 103.821771 
L 52.96435 103.821771 
L 52.96435 100.286829 
L 53.327871 100.286829 
L 53.327871 99.894057 
L 53.691393 99.894057 
L 53.691393 94.788029 
L 54.054914 94.788029 
L 54.054914 92.824171 
L 54.418436 92.824171 
L 54.418436 89.289229 
L 54.781957 89.289229 
L 54.781957 83.790429 
L 55.145479 83.790429 
L 55.145479 83.004886 
L 55.509 83.004886 
L 55.509 81.4338 
L 56.599564 81.4338 
L 56.599564 81.041029 
L 57.326607 81.041029 
L 57.326607 79.469943 
L 58.417171 79.469943 
L 58.417171 78.291629 
L 58.780693 78.291629 
L 58.780693 74.363914 
L 59.144214 74.363914 
L 59.144214 73.1856 
L 59.507736 73.1856 
L 59.507736 69.257886 
L 59.871257 69.257886 
L 59.871257 68.865114 
L 60.234779 68.865114 
L 60.234779 68.472343 
L 60.5983 68.472343 
L 60.5983 66.508486 
L 60.961821 66.508486 
L 60.961821 66.115714 
L 62.052386 66.115714 
L 62.052386 64.544629 
L 62.415907 64.544629 
L 62.415907 63.366314 
L 62.779429 63.366314 
L 62.779429 62.188 
L 63.14295 62.188 
L 63.14295 60.224143 
L 64.233514 60.224143 
L 64.233514 58.653057 
L 65.324079 58.653057 
L 65.324079 58.260286 
L 66.051121 58.260286 
L 66.051121 56.6892 
L 66.414643 56.6892 
L 66.414643 55.118114 
L 66.778164 55.118114 
L 66.778164 51.1904 
L 67.505207 51.1904 
L 67.505207 49.619314 
L 67.868729 49.619314 
L 67.868729 48.833771 
L 68.23225 48.833771 
L 68.23225 47.655457 
L 68.595771 47.655457 
L 68.595771 46.477143 
L 68.959293 46.477143 
L 68.959293 46.084371 
L 69.322814 46.084371 
L 69.322814 45.6916 
L 70.049857 45.6916 
L 70.049857 45.298829 
L 71.867464 45.298829 
L 71.867464 44.906057 
L 72.230986 44.906057 
L 72.230986 44.120514 
L 72.594507 44.120514 
L 72.594507 42.549429 
L 74.048593 42.549429 
L 74.048593 40.585571 
L 74.412114 40.585571 
L 74.412114 39.800029 
L 74.775636 39.800029 
L 74.775636 39.014486 
L 75.139157 39.014486 
L 75.139157 37.836171 
L 75.502679 37.836171 
L 75.502679 37.4434 
L 75.8662 37.4434 
L 75.8662 37.050629 
L 76.956764 37.050629 
L 76.956764 36.265086 
L 77.320286 36.265086 
L 77.320286 35.479543 
L 77.683807 35.479543 
L 77.683807 34.694 
L 78.047329 34.694 
L 78.047329 34.301229 
L 79.137893 34.301229 
L 79.137893 33.908457 
L 79.501414 33.908457 
L 79.501414 33.515686 
L 80.228457 33.515686 
L 80.228457 31.9446 
L 81.682543 31.9446 
L 81.682543 31.159057 
L 83.863671 31.159057 
L 83.863671 30.373514 
L 85.317757 30.373514 
L 85.317757 29.980743 
L 85.681279 29.980743 
L 85.681279 29.1952 
L 87.135364 29.1952 
L 87.135364 28.016886 
L 88.225929 28.016886 
L 88.225929 27.624114 
L 89.316493 27.624114 
L 89.316493 27.231343 
L 90.043536 27.231343 
L 90.043536 26.838571 
L 90.407057 26.838571 
L 90.407057 26.4458 
L 90.770579 26.4458 
L 90.770579 26.053029 
L 91.861143 26.053029 
L 91.861143 25.660257 
L 93.67875 25.660257 
L 93.67875 25.267486 
L 94.405793 25.267486 
L 94.405793 24.874714 
L 99.858614 24.874714 
L 99.858614 24.481943 
L 100.585657 24.481943 
L 100.585657 24.089171 
L 101.3127 24.089171 
L 101.3127 23.6964 
L 102.039743 23.6964 
L 102.039743 23.303629 
L 103.493829 23.303629 
L 103.493829 22.910857 
L 103.85735 22.910857 
L 103.85735 22.125314 
L 105.311436 22.125314 
L 105.311436 21.732543 
L 107.856086 21.732543 
L 107.856086 21.339771 
L 108.94665 21.339771 
L 108.94665 20.947 
L 112.945386 20.947 
L 112.945386 19.768686 
L 114.03595 19.768686 
L 114.03595 19.375914 
L 114.762993 19.375914 
L 114.762993 18.983143 
L 115.126514 18.983143 
L 115.126514 18.590371 
L 119.488771 18.590371 
L 119.488771 18.1976 
L 125.668636 18.1976 
L 125.668636 17.804829 
L 132.575543 17.804829 
L 132.575543 17.412057 
L 136.210757 17.412057 
L 136.210757 17.019286 
L 140.936536 17.019286 
L 140.936536 16.626514 
L 148.934007 16.626514 
L 148.934007 16.233743 
L 153.659786 16.233743 
L 153.659786 15.840971 
L 160.203171 15.840971 
L 160.203171 15.4482 
L 179.833329 15.4482 
L 179.833329 15.055429 
L 195.46475 15.055429 
L 195.46475 15.055429 
" clip-path="url(#pcd7011da8a)" style="fill: none; stroke: #000000; stroke-width: 2; stroke-linecap: square"/>
   </g>
   <g id="patch_3">
    <path d="M 42.78575 172.164 
L 42.78575 7.2 
" style="fill: none; stroke: #000000; stroke-linejoin: miter; stroke-linecap: square"/>
   </g>
   <g id="patch_4">
    <path d="M 42.78575 172.164 
L 195.46475 172.164 
" style="fill: none; stroke: #000000; stroke-linejoin: miter; stroke-linecap: square"/>
   </g>
   <g id="legend_1">
    <g id="line2d_17">
     <path d="M 70.618875 107.666875 
L 79.418875 107.666875 
L 88.218875 107.666875 
" style="fill: none; stroke: #3274a1; stroke-width: 2; stroke-linecap: square"/>
    </g>
    <g id="text_14">
     <!-- ACTB (AUC=0.912) -->
     <g transform="translate(95.258875 110.746875) scale(0.088 -0.088)">
      <defs>
       <path id="DejaVuSans-41" d="M 2188 4044 
L 1331 1722 
L 3047 1722 
L 2188 4044 
z
M 1831 4666 
L 2547 4666 
L 4325 0 
L 3669 0 
L 3244 1197 
L 1141 1197 
L 716 0 
L 50 0 
L 1831 4666 
z
" transform="scale(0.015625)"/>
       <path id="DejaVuSans-43" d="M 4122 4306 
L 4122 3641 
Q 3803 3938 3442 4084 
Q 3081 4231 2675 4231 
Q 1875 4231 1450 3742 
Q 1025 3253 1025 2328 
Q 1025 1406 1450 917 
Q 1875 428 2675 428 
Q 3081 428 3442 575 
Q 3803 722 4122 1019 
L 4122 359 
Q 3791 134 3420 21 
Q 3050 -91 2638 -91 
Q 1578 -91 968 557 
Q 359 1206 359 2328 
Q 359 3453 968 4101 
Q 1578 4750 2638 4750 
Q 3056 4750 3426 4639 
Q 3797 4528 4122 4306 
z
" transform="scale(0.015625)"/>
       <path id="DejaVuSans-42" d="M 1259 2228 
L 1259 519 
L 2272 519 
Q 2781 519 3026 730 
Q 3272 941 3272 1375 
Q 3272 1813 3026 2020 
Q 2781 2228 2272 2228 
L 1259 2228 
z
M 1259 4147 
L 1259 2741 
L 2194 2741 
Q 2656 2741 2882 2914 
Q 3109 3088 3109 3444 
Q 3109 3797 2882 3972 
Q 2656 4147 2194 4147 
L 1259 4147 
z
M 628 4666 
L 2241 4666 
Q 2963 4666 3353 4366 
Q 3744 4066 3744 3513 
Q 3744 3084 3544 2831 
Q 3344 2578 2956 2516 
Q 3422 2416 3680 2098 
Q 3938 1781 3938 1306 
Q 3938 681 3513 340 
Q 3088 0 2303 0 
L 628 0 
L 628 4666 
z
" transform="scale(0.015625)"/>
       <path id="DejaVuSans-20" transform="scale(0.015625)"/>
       <path id="DejaVuSans-28" d="M 1984 4856 
Q 1566 4138 1362 3434 
Q 1159 2731 1159 2009 
Q 1159 1288 1364 580 
Q 1569 -128 1984 -844 
L 1484 -844 
Q 1016 -109 783 600 
Q 550 1309 550 2009 
Q 550 2706 781 3412 
Q 1013 4119 1484 4856 
L 1984 4856 
z
" transform="scale(0.015625)"/>
       <path id="DejaVuSans-55" d="M 556 4666 
L 1191 4666 
L 1191 1831 
Q 1191 1081 1462 751 
Q 1734 422 2344 422 
Q 2950 422 3222 751 
Q 3494 1081 3494 1831 
L 3494 4666 
L 4128 4666 
L 4128 1753 
Q 4128 841 3676 375 
Q 3225 -91 2344 -91 
Q 1459 -91 1007 375 
Q 556 841 556 1753 
L 556 4666 
z
" transform="scale(0.015625)"/>
       <path id="DejaVuSans-3d" d="M 678 2906 
L 4684 2906 
L 4684 2381 
L 678 2381 
L 678 2906 
z
M 678 1631 
L 4684 1631 
L 4684 1100 
L 678 1100 
L 678 1631 
z
" transform="scale(0.015625)"/>
       <path id="DejaVuSans-39" d="M 703 97 
L 703 672 
Q 941 559 1184 500 
Q 1428 441 1663 441 
Q 2288 441 2617 861 
Q 2947 1281 2994 2138 
Q 2813 1869 2534 1725 
Q 2256 1581 1919 1581 
Q 1219 1581 811 2004 
Q 403 2428 403 3163 
Q 403 3881 828 4315 
Q 1253 4750 1959 4750 
Q 2769 4750 3195 4129 
Q 3622 3509 3622 2328 
Q 3622 1225 3098 567 
Q 2575 -91 1691 -91 
Q 1453 -91 1209 -44 
Q 966 3 703 97 
z
M 1959 2075 
Q 2384 2075 2632 2365 
Q 2881 2656 2881 3163 
Q 2881 3666 2632 3958 
Q 2384 4250 1959 4250 
Q 1534 4250 1286 3958 
Q 1038 3666 1038 3163 
Q 1038 2656 1286 2365 
Q 1534 2075 1959 2075 
z
" transform="scale(0.015625)"/>
       <path id="DejaVuSans-29" d="M 513 4856 
L 1013 4856 
Q 1481 4119 1714 3412 
Q 1947 2706 1947 2009 
Q 1947 1309 1714 600 
Q 1481 -109 1013 -844 
L 513 -844 
Q 928 -128 1133 580 
Q 1338 1288 1338 2009 
Q 1338 2731 1133 3434 
Q 928 4138 513 4856 
z
" transform="scale(0.015625)"/>
      </defs>
      <use xlink:href="#DejaVuSans-41"/>
      <use xlink:href="#DejaVuSans-43" transform="translate(66.658203 0)"/>
      <use xlink:href="#DejaVuSans-54" transform="translate(136.482422 0)"/>
      <use xlink:href="#DejaVuSans-42" transform="translate(197.566406 0)"/>
      <use xlink:href="#DejaVuSans-20" transform="translate(266.169922 0)"/>
      <use xlink:href="#DejaVuSans-28" transform="translate(297.957031 0)"/>
      <use xlink:href="#DejaVuSans-41" transform="translate(336.970703 0)"/>
      <use xlink:href="#DejaVuSans-55" transform="translate(405.378906 0)"/>
      <use xlink:href="#DejaVuSans-43" transform="translate(478.572266 0)"/>
      <use xlink:href="#DejaVuSans-3d" transform="translate(548.396484 0)"/>
      <use xlink:href="#DejaVuSans-30" transform="translate(632.185547 0)"/>
      <use xlink:href="#DejaVuSans-2e" transform="translate(695.808594 0)"/>
      <use xlink:href="#DejaVuSans-39" transform="translate(727.595703 0)"/>
      <use xlink:href="#DejaVuSans-31" transform="translate(791.21875 0)"/>
      <use xlink:href="#DejaVuSans-32" transform="translate(854.841797 0)"/>
      <use xlink:href="#DejaVuSans-29" transform="translate(918.464844 0)"/>
     </g>
    </g>
    <g id="line2d_18">
     <path d="M 70.618875 120.583625 
L 79.418875 120.583625 
L 88.218875 120.583625 
" style="fill: none; stroke: #4ab45a; stroke-width: 2; stroke-linecap: square"/>
    </g>
    <g id="text_15">
     <!-- HBB (AUC=0.974) -->
     <g transform="translate(95.258875 123.663625) scale(0.088 -0.088)">
      <defs>
       <path id="DejaVuSans-48" d="M 628 4666 
L 1259 4666 
L 1259 2753 
L 3553 2753 
L 3553 4666 
L 4184 4666 
L 4184 0 
L 3553 0 
L 3553 2222 
L 1259 2222 
L 1259 0 
L 628 0 
L 628 4666 
z
" transform="scale(0.015625)"/>
      </defs>
      <use xlink:href="#DejaVuSans-48"/>
      <use xlink:href="#DejaVuSans-42" transform="translate(75.195312 0)"/>
      <use xlink:href="#DejaVuSans-42" transform="translate(143.798828 0)"/>
      <use xlink:href="#DejaVuSans-20" transform="translate(212.402344 0)"/>
      <use xlink:href="#DejaVuSans-28" transform="translate(244.189453 0)"/>
      <use xlink:href="#DejaVuSans-41" transform="translate(283.203125 0)"/>
      <use xlink:href="#DejaVuSans-55" transform="translate(351.611328 0)"/>
      <use xlink:href="#DejaVuSans-43" transform="translate(424.804688 0)"/>
      <use xlink:href="#DejaVuSans-3d" transform="translate(494.628906 0)"/>
      <use xlink:href="#DejaVuSans-30" transform="translate(578.417969 0)"/>
      <use xlink:href="#DejaVuSans-2e" transform="translate(642.041016 0)"/>
      <use xlink:href="#DejaVuSans-39" transform="translate(673.828125 0)"/>
      <use xlink:href="#DejaVuSans-37" transform="translate(737.451172 0)"/>
      <use xlink:href="#DejaVuSans-34" transform="translate(801.074219 0)"/>
      <use xlink:href="#DejaVuSans-29" transform="translate(864.697266 0)"/>
     </g>
    </g>
    <g id="line2d_19">
     <path d="M 70.618875 133.500375 
L 79.418875 133.500375 
L 88.218875 133.500375 
" style="fill: none; stroke: #45a884; stroke-width: 2; stroke-linecap: square"/>
    </g>
    <g id="text_16">
     <!-- THRB (AUC=0.962) -->
     <g transform="translate(95.258875 136.580375) scale(0.088 -0.088)">
      <use xlink:href="#DejaVuSans-54"/>
      <use xlink:href="#DejaVuSans-48" transform="translate(61.083984 0)"/>
      <use xlink:href="#DejaVuSans-52" transform="translate(136.279297 0)"/>
      <use xlink:href="#DejaVuSans-42" transform="translate(205.761719 0)"/>
      <use xlink:href="#DejaVuSans-20" transform="translate(274.365234 0)"/>
      <use xlink:href="#DejaVuSans-28" transform="translate(306.152344 0)"/>
      <use xlink:href="#DejaVuSans-41" transform="translate(345.166016 0)"/>
      <use xlink:href="#DejaVuSans-55" transform="translate(413.574219 0)"/>
      <use xlink:href="#DejaVuSans-43" transform="translate(486.767578 0)"/>
      <use xlink:href="#DejaVuSans-3d" transform="translate(556.591797 0)"/>
      <use xlink:href="#DejaVuSans-30" transform="translate(640.380859 0)"/>
      <use xlink:href="#DejaVuSans-2e" transform="translate(704.003906 0)"/>
      <use xlink:href="#DejaVuSans-39" transform="translate(735.791016 0)"/>
      <use xlink:href="#DejaVuSans-36" transform="translate(799.414062 0)"/>
      <use xlink:href="#DejaVuSans-32" transform="translate(863.037109 0)"/>
      <use xlink:href="#DejaVuSans-29" transform="translate(926.660156 0)"/>
     </g>
    </g>
    <g id="line2d_20">
     <path d="M 70.618875 146.417125 
L 79.418875 146.417125 
L 88.218875 146.417125 
" style="fill: none; stroke: #6b50ce; stroke-width: 2; stroke-linecap: square"/>
    </g>
    <g id="text_17">
     <!-- APOA1 (AUC=0.845) -->
     <g transform="translate(95.258875 149.497125) scale(0.088 -0.088)">
      <defs>
       <path id="DejaVuSans-4f" d="M 2522 4238 
Q 1834 4238 1429 3725 
Q 1025 3213 1025 2328 
Q 1025 1447 1429 934 
Q 1834 422 2522 422 
Q 3209 422 3611 934 
Q 4013 1447 4013 2328 
Q 4013 3213 3611 3725 
Q 3209 4238 2522 4238 
z
M 2522 4750 
Q 3503 4750 4090 4092 
Q 4678 3434 4678 2328 
Q 4678 1225 4090 567 
Q 3503 -91 2522 -91 
Q 1538 -91 948 565 
Q 359 1222 359 2328 
Q 359 3434 948 4092 
Q 1538 4750 2522 4750 
z
" transform="scale(0.015625)"/>
      </defs>
      <use xlink:href="#DejaVuSans-41"/>
      <use xlink:href="#DejaVuSans-50" transform="translate(68.408203 0)"/>
      <use xlink:href="#DejaVuSans-4f" transform="translate(128.710938 0)"/>
      <use xlink:href="#DejaVuSans-41" transform="translate(205.671875 0)"/>
      <use xlink:href="#DejaVuSans-31" transform="translate(274.080078 0)"/>
      <use xlink:href="#DejaVuSans-20" transform="translate(337.703125 0)"/>
      <use xlink:href="#DejaVuSans-28" transform="translate(369.490234 0)"/>
      <use xlink:href="#DejaVuSans-41" transform="translate(408.503906 0)"/>
      <use xlink:href="#DejaVuSans-55" transform="translate(476.912109 0)"/>
      <use xlink:href="#DejaVuSans-43" transform="translate(550.105469 0)"/>
      <use xlink:href="#DejaVuSans-3d" transform="translate(619.929688 0)"/>
      <use xlink:href="#DejaVuSans-30" transform="translate(703.71875 0)"/>
      <use xlink:href="#DejaVuSans-2e" transform="translate(767.341797 0)"/>
      <use xlink:href="#DejaVuSans-38" transform="translate(799.128906 0)"/>
      <use xlink:href="#DejaVuSans-34" transform="translate(862.751953 0)"/>
      <use xlink:href="#DejaVuSans-35" transform="translate(926.375 0)"/>
      <use xlink:href="#DejaVuSans-29" transform="translate(989.998047 0)"/>
     </g>
    </g>
    <g id="line2d_21">
     <path d="M 70.618875 159.333875 
L 79.418875 159.333875 
L 88.218875 159.333875 
" style="fill: none; stroke: #000000; stroke-width: 2; stroke-linecap: square"/>
    </g>
    <g id="text_18">
     <!-- Overall (AUC=0.915) -->
     <g transform="translate(95.258875 162.413875) scale(0.088 -0.088)">
      <defs>
       <path id="DejaVuSans-76" d="M 191 3500 
L 800 3500 
L 1894 563 
L 2988 3500 
L 3597 3500 
L 2284 0 
L 1503 0 
L 191 3500 
z
" transform="scale(0.015625)"/>
       <path id="DejaVuSans-65" d="M 3597 1894 
L 3597 1613 
L 953 1613 
Q 991 1019 1311 708 
Q 1631 397 2203 397 
Q 2534 397 2845 478 
Q 3156 559 3463 722 
L 3463 178 
Q 3153 47 2828 -22 
Q 2503 -91 2169 -91 
Q 1331 -91 842 396 
Q 353 884 353 1716 
Q 353 2575 817 3079 
Q 1281 3584 2069 3584 
Q 2775 3584 3186 3129 
Q 3597 2675 3597 1894 
z
M 3022 2063 
Q 3016 2534 2758 2815 
Q 2500 3097 2075 3097 
Q 1594 3097 1305 2825 
Q 1016 2553 972 2059 
L 3022 2063 
z
" transform="scale(0.015625)"/>
       <path id="DejaVuSans-72" d="M 2631 2963 
Q 2534 3019 2420 3045 
Q 2306 3072 2169 3072 
Q 1681 3072 1420 2755 
Q 1159 2438 1159 1844 
L 1159 0 
L 581 0 
L 581 3500 
L 1159 3500 
L 1159 2956 
Q 1341 3275 1631 3429 
Q 1922 3584 2338 3584 
Q 2397 3584 2469 3576 
Q 2541 3569 2628 3553 
L 2631 2963 
z
" transform="scale(0.015625)"/>
       <path id="DejaVuSans-61" d="M 2194 1759 
Q 1497 1759 1228 1600 
Q 959 1441 959 1056 
Q 959 750 1161 570 
Q 1363 391 1709 391 
Q 2188 391 2477 730 
Q 2766 1069 2766 1631 
L 2766 1759 
L 2194 1759 
z
M 3341 1997 
L 3341 0 
L 2766 0 
L 2766 531 
Q 2569 213 2275 61 
Q 1981 -91 1556 -91 
Q 1019 -91 701 211 
Q 384 513 384 1019 
Q 384 1609 779 1909 
Q 1175 2209 1959 2209 
L 2766 2209 
L 2766 2266 
Q 2766 2663 2505 2880 
Q 2244 3097 1772 3097 
Q 1472 3097 1187 3025 
Q 903 2953 641 2809 
L 641 3341 
Q 956 3463 1253 3523 
Q 1550 3584 1831 3584 
Q 2591 3584 2966 3190 
Q 3341 2797 3341 1997 
z
" transform="scale(0.015625)"/>
       <path id="DejaVuSans-6c" d="M 603 4863 
L 1178 4863 
L 1178 0 
L 603 0 
L 603 4863 
z
" transform="scale(0.015625)"/>
      </defs>
      <use xlink:href="#DejaVuSans-4f"/>
      <use xlink:href="#DejaVuSans-76" transform="translate(78.710938 0)"/>
      <use xlink:href="#DejaVuSans-65" transform="translate(137.890625 0)"/>
      <use xlink:href="#DejaVuSans-72" transform="translate(199.414062 0)"/>
      <use xlink:href="#DejaVuSans-61" transform="translate(240.527344 0)"/>
      <use xlink:href="#DejaVuSans-6c" transform="translate(301.806641 0)"/>
      <use xlink:href="#DejaVuSans-6c" transform="translate(329.589844 0)"/>
      <use xlink:href="#DejaVuSans-20" transform="translate(357.373047 0)"/>
      <use xlink:href="#DejaVuSans-28" transform="translate(389.160156 0)"/>
      <use xlink:href="#DejaVuSans-41" transform="translate(428.173828 0)"/>
      <use xlink:href="#DejaVuSans-55" transform="translate(496.582031 0)"/>
      <use xlink:href="#DejaVuSans-43" transform="translate(569.775391 0)"/>
      <use xlink:href="#DejaVuSans-3d" transform="translate(639.599609 0)"/>
      <use xlink:href="#DejaVuSans-30" transform="translate(723.388672 0)"/>
      <use xlink:href="#DejaVuSans-2e" transform="translate(787.011719 0)"/>
      <use xlink:href="#DejaVuSans-39" transform="translate(818.798828 0)"/>
      <use xlink:href="#DejaVuSans-31" transform="translate(882.421875 0)"/>
      <use xlink:href="#DejaVuSans-35" transform="translate(946.044922 0)"/>
      <use xlink:href="#DejaVuSans-29" transform="translate(1009.667969 0)"/>
     </g>
    </g>
   </g>
  </g>
 </g>
 <defs>
  <clipPath id="pcd7011da8a">
   <rect x="42.78575" y="7.2" width="152.679" height="164.964"/>
  </clipPath>
 </defs>
</svg>
